<svg xmlns="http://www.w3.org/2000/svg" version="1.1" viewBox="197.07 228.45 891.69 226.65"><path d="m262.863 228.762 3.35 -0.022c3.65 -0.022 7.3 -0.034 10.952 -0.044l3.798 -0.014q9.961 -0.033 19.922 -0.048c6.819 -0.012 13.638 -0.05 20.458 -0.092 5.276 -0.029 10.552 -0.038 15.829 -0.041q3.769 -0.009 7.535 -0.038c19.839 -0.151 36.648 0.806 53.521 12.428l3.458 2.373c13.072 13.072 20.581 28.085 20.72 46.57l-0.008 3.28 0.016 3.538c0.015 3.836 0.014 7.67 0.011 11.505l0.015 8.047q0.011 8.419 0.002 16.838c-0.007 7.172 0.011 14.344 0.037 21.515 0.016 5.537 0.017 11.074 0.014 16.611q0 3.965 0.016 7.93c0.014 3.706 0.007 7.409 -0.007 11.115l0.025 3.266c-0.119 16.22 -6.185 30.76 -17.412 42.456 -18.642 17.866 -39.319 19.228 -63.885 19.15q-3.711 0.003 -7.422 0.011 -7.746 0.005 -15.493 -0.018c-6.583 -0.018 -13.165 -0.008 -19.748 0.011 -5.102 0.013 -10.205 0.009 -15.307 0q-3.637 -0.003 -7.277 0.009C252.861 455.151 232.317 453.216 214.848 436.206c-12.924 -14.576 -17.712 -30.253 -17.66 -49.451l-0.016 -3.267c-0.015 -3.527 -0.014 -7.052 -0.011 -10.577l-0.015 -7.43q-0.011 -7.767 -0.002 -15.533c0.007 -6.6 -0.011 -13.199 -0.037 -19.799 -0.016 -5.112 -0.017 -10.224 -0.014 -15.336q0 -3.647 -0.016 -7.295c-0.094 -23.635 1.869 -44.024 19.226 -61.852 13.323 -12.031 28.944 -16.855 46.561 -16.905" fill="#F3F3F3"/><path d="M302.057 266.8c8.481 -0.145 16.851 0.259 25.301 1.013l2.728 0.23c7.847 0.769 14.702 2.498 22.568 4.313v31.468l-12.343 -0.543c-23.812 -2.687 -23.812 -2.687 -45.925 2.962 -1.966 2.675 -1.845 4.601 -1.819 7.889l-0.025 3.153c0.494 3.215 1.139 4.131 3.687 6.07 2.778 1.389 4.864 1.276 7.973 1.352l3.554 0.109a2600.957 2600.957 0 0 0 7.375 0.187c13.188 0.412 24.56 2.475 34.627 11.552C362.278 350.336 361.078 366.641 360.249 384.121c-0.883 10.764 -4.995 18.984 -12.538 26.678 -16.278 13.363 -46.171 10.372 -65.588 8.757 -4.012 -0.423 -7.967 -1.074 -11.936 -1.797l-4.056 -0.602c-9.186 -1.627 -9.186 -1.627 -12.559 -5.637 -2.441 -9.6 -1.789 -19.661 2.509 -28.484l1.844 0.1c12.742 0.668 25.476 1.115 38.236 1.189l3.559 0.042c7.408 0.009 14.401 -0.13 20.924 -4.044 2.575 -4.292 1.963 -8.683 1.628 -13.564 -3.796 -1.706 -6.804 -2.446 -10.957 -2.505l-3.159 -0.075 -3.313 -0.065c-14.922 -0.488 -29.555 -2.292 -41.03 -12.817 -11.743 -12.765 -10.702 -31.5 -10.099 -47.654 0.755 -11.754 5.83 -19.072 14.304 -26.946 9.115 -7.872 22.398 -9.479 34.04 -9.897" fill="#4E5CA6"/><path d="M500.972 287.481c6.539 4.007 12.585 10.275 15.53 17.429 0.572 6.519 0.572 6.519 -1.152 9.766 -2.103 1.085 -2.103 1.085 -5.629 1.425 -5.445 -1.907 -6.671 -4.894 -9.706 -9.61 -2.925 -3.982 -5.886 -5.788 -10.639 -7.006 -7.493 -1.139 -14.297 0.035 -20.617 4.34 -3.378 4.606 -3.859 8.479 -3.255 14.106 1.801 5.626 4.601 7.777 9.44 10.702 4.091 2.022 8.263 2.681 12.737 3.404 10.382 1.953 18.673 4.478 25.329 13.186C518.77 353.956 518.737 364.215 517.587 374.356c-0.955 3.672 -2.268 6.601 -4.34 9.766l-1.899 2.984c-7.006 7.006 -15.141 10.265 -24.985 10.45 -13.818 -0.034 -22.353 -2.027 -32.635 -11.871 -3.314 -3.766 -5.642 -7.465 -6.671 -12.414 0.611 -3.187 0.611 -3.187 2.17 -5.425 3.255 -2.17 3.255 -2.17 6.481 -2.09 4.11 1.258 4.87 2.574 7.014 6.226 3.714 5.752 6.882 8.612 13.564 10.593 7.108 1.468 13.211 0.77 19.6 -2.793 4.731 -3.575 6.501 -6.945 7.498 -12.652 0.221 -5.767 -2.069 -9.82 -5.532 -14.271 -5.899 -4.59 -12.071 -5.727 -19.26 -7.121 -10.422 -2.163 -17.825 -5.917 -23.939 -14.784 -4.867 -8.391 -5.526 -16.793 -3.12 -26.109 2.65 -7.961 6.742 -12.27 14.175 -16.073 10.23 -4.746 24.74 -6.09 35.265 -1.288" fill="#000000"/><path d="M540.917 285.989c3.798 0.474 3.798 0.474 5.628 1.622 2.17 3.209 1.946 6.511 1.98 10.258l0.059 2.394c0.059 2.521 0.095 5.041 0.132 7.563q0.054 2.565 0.112 5.13 0.136 6.284 0.227 12.57l1.747 -1.149 2.322 -1.495 2.29 -1.489c6.437 -3.582 14.503 -3.31 21.523 -1.712 8.056 2.796 13.073 7.516 16.912 15.102 3.409 8.084 4.21 15.668 4.256 24.356l0.018 2.787q0.015 2.904 0.022 5.805c0.011 2.96 0.044 5.919 0.078 8.879q0.011 2.828 0.017 5.654l0.041 2.676c-0.014 3.587 -0.145 6.29 -1.81 9.508C594.628 396.057 594.628 396.057 590.831 396.531c-3.798 -0.474 -3.798 -0.474 -5.637 -1.869 -2.496 -3.281 -1.871 -7.402 -1.857 -11.368l-0.036 -2.843c-0.037 -3.004 -0.054 -6.008 -0.066 -9.012q-0.026 -5.907 -0.102 -11.813l0.011 -2.711c-0.098 -7.509 -1.411 -13.566 -6.488 -19.385 -4.539 -3.841 -7.943 -3.686 -13.749 -3.633 -5.223 0.538 -8.118 3.063 -11.478 6.888 -2.051 3.343 -2.512 6.125 -2.546 9.958l-0.033 2.798 -0.025 3.011 -0.093 6.302q-0.068 4.972 -0.113 9.945a1336.829 1336.829 0 0 1 -0.132 9.592l-0.011 3.01 -0.054 2.798 -0.027 2.46c-0.549 2.763 -1.44 3.725 -3.681 5.396 -3.798 0.475 -3.798 0.475 -7.596 0 -2.188 -1.897 -3.125 -3.459 -3.55 -6.339 -0.13 -2.568 -0.144 -5.116 -0.126 -7.689l-0.017 -2.962c-0.014 -3.234 -0.005 -6.464 0.007 -9.696q-0.003 -3.369 -0.011 -6.738 -0.005 -7.059 0.018 -14.119c0.018 -6.035 0.008 -12.071 -0.011 -18.106 -0.013 -4.638 -0.009 -9.274 0 -13.912q0.004 -3.338 -0.009 -6.677c-0.008 -3.11 0.004 -6.218 0.022 -9.327l-0.02 -2.792c0.041 -3.76 0.115 -6.263 1.859 -9.642C537.119 286.463 537.119 286.463 540.917 285.989" fill="#000000"/><path d="M821.412 286.463c2.828 2.603 3.238 4.169 3.624 8.021 -0.016 1.432 -0.033 2.864 -0.051 4.339l-0.014 2.317a761.732 761.732 0 0 1 -0.1 7.296q-0.026 2.479 -0.046 4.959 -0.055 6.066 -0.158 12.131l1.984 -1.149 2.628 -1.495 2.593 -1.489c6.543 -3.304 14.551 -3.606 21.559 -1.597 8.49 3.569 13.629 8.318 17.811 16.488 3.711 10.622 3.713 21.46 3.683 32.577 -0.004 2.664 0.022 5.328 0.049 7.992q0.004 2.562 0.002 5.124l0.03 2.392c-0.043 4.793 -0.697 7.891 -3.68 11.69 -3.162 0.952 -5.315 0.428 -8.681 0 -2.784 -4.177 -2.492 -7.644 -2.505 -12.487l-0.082 -5.621q-0.046 -4.413 -0.077 -8.827a1171.896 1171.896 0 0 0 -0.112 -8.542v-2.622c-0.132 -7.653 -1.469 -14.523 -6.447 -20.496 -5.083 -4.066 -10.567 -3.928 -16.819 -3.255 -4.184 1.359 -6.941 3.352 -9.403 7.072 -1.921 5.015 -1.905 9.42 -1.888 14.744l-0.036 3.161c-0.05 4.443 -0.062 8.887 -0.078 13.331a1602.676 1602.676 0 0 1 -0.09 9.754l0.011 3.052 -0.034 2.832 -0.007 2.488c-0.53 2.784 -1.41 3.738 -3.667 5.416 -3.798 0.475 -3.798 0.475 -7.596 0 -2.202 -1.9 -3.128 -3.469 -3.55 -6.359 -0.13 -2.601 -0.144 -5.182 -0.126 -7.786l-0.017 -3.001c-0.014 -3.273 -0.005 -6.543 0.007 -9.817q-0.003 -3.408 -0.011 -6.818 -0.005 -7.144 0.018 -14.287a2943.845 2943.845 0 0 0 -0.011 -18.333c-0.013 -4.692 -0.009 -9.385 0 -14.077q0.004 -3.381 -0.009 -6.76c-0.008 -3.147 0.004 -6.292 0.022 -9.438l-0.02 -2.834c0.068 -6.339 0.068 -6.339 1.858 -8.692 3.082 -2.333 5.729 -1.856 9.435 -1.393" fill="#000000"/><path d="m946.061 286.175 2.306 0.017 2.306 -0.017C952.708 286.463 952.708 286.463 954.878 288.634c0.266 2.795 0.405 5.482 0.449 8.282l0.064 2.472c0.065 2.61 0.115 5.219 0.165 7.828l0.127 5.303q0.154 6.504 0.28 13.008l1.747 -1.149 2.322 -1.495 2.29 -1.489c6.419 -3.573 14.535 -3.355 21.523 -1.674 7.486 2.679 12.982 6.717 16.912 13.705 3.637 7.806 4.216 14.827 4.256 23.341l0.018 3.093q0.015 3.225 0.022 6.451c0.011 3.295 0.044 6.591 0.078 9.886q0.011 3.136 0.017 6.274l0.041 2.989 -0.011 2.778 0.012 2.439c-0.519 2.767 -1.415 3.713 -3.653 5.382 -3.798 0.475 -3.798 0.475 -7.596 0 -2.22 -1.912 -3.135 -3.481 -3.544 -6.393 -0.122 -2.604 -0.132 -5.191 -0.114 -7.797l-0.058 -5.921q-0.016 -4.647 -0.013 -9.293a967.899 967.899 0 0 0 -0.065 -8.998l0.027 -2.771c-0.097 -7.729 -2.101 -13.591 -7.694 -19.049 -5.296 -2.311 -9.975 -2.466 -15.667 -1.628 -4.894 2.359 -7.442 4.872 -9.766 9.766 -0.909 3.049 -1.232 5.805 -1.274 8.982l-0.043 2.742 -0.035 2.933 -0.109 6.159q-0.078 4.85 -0.141 9.701c-0.043 3.123 -0.1 6.246 -0.157 9.369l-0.028 2.945 -0.054 2.722 -0.034 2.398C954.878 393.887 954.878 393.887 952.708 396.057c-2.035 0.289 -2.035 0.289 -4.34 0.271l-2.306 0.017C944.027 396.057 944.027 396.057 941.857 393.887a141.061 141.061 0 0 1 -0.281 -9.874l-0.011 -3.101c-0.011 -3.394 -0.003 -6.789 0.003 -10.185l-0.005 -7.054q-0.005 -7.4 0.011 -14.8c0.013 -6.335 0.005 -12.669 -0.008 -19.004q-0.01 -7.285 0 -14.571 0.003 -3.505 -0.005 -7.01c-0.005 -3.261 0.003 -6.521 0.015 -9.781l-0.013 -2.949c0.061 -8.754 0.061 -8.754 4.499 -9.384" fill="#000000"/><path d="M1069.897 322.271c10.649 7.567 15.979 16.573 18.447 29.297 0.293 3.163 0.33 6.302 0.326 9.477l0.015 2.632q0.009 2.73 0.002 5.46c-0.004 2.783 0.022 5.567 0.049 8.35q0.004 2.663 0.002 5.328l0.03 2.511c-0.03 3.461 -0.217 5.996 -1.839 9.087C1085.088 396.057 1085.088 396.057 1081.291 396.531c-3.798 -0.474 -3.798 -0.474 -5.832 -1.763 -1.505 -2.425 -1.926 -4.58 -2.306 -7.392l-1.47 1.348 -1.988 1.772 -1.946 1.755c-7.04 5.256 -15.541 4.63 -23.894 3.806 -8.609 -2.517 -14.019 -7.61 -18.642 -15.094 -6.066 -11.135 -7.055 -24.607 -3.874 -36.826 3.345 -9.601 9.274 -17.552 18.379 -22.274 9.348 -4.379 21.017 -4.562 30.178 0.407m-31.196 18.379c-5.672 7.719 -5.519 15.806 -4.612 25.024 2.255 7.802 6.057 12.278 13.021 16.276 5.373 1.79 10.039 1.725 15.26 -0.474 6.104 -3.302 9.717 -9.349 11.868 -15.802 0.699 -8.912 0.992 -17.416 -4.34 -24.957 -4.766 -5.009 -8.464 -7.753 -15.463 -7.934 -7.241 0.085 -10.992 2.562 -15.734 7.867" fill="#000000"/><path d="M719.075 324.577c8.063 6.19 10.606 16.308 12.275 25.906 0.488 4.764 0.579 7.81 -2.17 11.936 -2.115 0.391 -2.115 0.391 -4.729 0.369h-2.962l-3.202 -0.051 -3.275 -0.014c-3.461 -0.018 -6.922 -0.059 -10.382 -0.1q-3.514 -0.026 -7.028 -0.046 -8.626 -0.054 -17.251 -0.158 0.968 2.885 1.967 5.761l1.106 3.24c2.358 5.462 6.708 8.268 12.118 10.531 8.795 1.023 14.382 -0.546 21.702 -5.425 3.866 0.136 3.866 0.136 7.596 1.085 2.083 2.431 2.17 3.815 2.17 6.986 -1.961 5.025 -5.607 7.232 -10.262 9.511 -10.492 4.262 -19.842 4.441 -30.353 0.115C676.789 389.33 672.414 381.998 668.414 372.185c-3.33 -11.464 -2.466 -26.462 3.255 -36.893 4.608 -7.895 10.359 -12.192 18.786 -15.53 10.715 -1.999 19.369 -0.933 28.619 4.815M684.42 340.175c-2.961 4.23 -4.069 6.12 -4.069 11.393h37.978c-0.935 -6.085 -0.935 -6.085 -3.527 -11.054l-1.305 -2.15c-2.919 -3.457 -5.784 -5.046 -10.254 -5.714 -8.51 -0.011 -12.965 1.015 -18.823 7.524" fill="#000000"/><path d="M787.774 323.356c3.214 2.541 5.675 5.042 7.596 8.681 0 4.273 0 4.273 -1.085 7.596 -1.085 1.085 -1.085 1.085 -5.086 1.492 -5.355 -0.029 -7.449 -2.18 -11.191 -5.832 -2.92 -1.461 -5.287 -1.309 -8.545 -1.356l-3.451 -0.085c-3.573 0.398 -5.022 1.08 -7.536 3.611 -0.904 3.209 -0.904 3.209 0 6.511 4.74 3.793 9.388 5.48 15.124 7.053 9.174 2.532 16.059 5.672 21.769 13.564 2.105 6.315 1.915 13.528 0 19.871 -4.844 6.508 -10.219 11.467 -18.447 12.681 -13.429 0.952 -24.145 -1.117 -34.723 -9.766 -1.655 -3.31 -1.341 -6.122 -1.085 -9.766 1.153 -2.102 1.153 -2.102 3.255 -3.255 3.595 -0.543 3.595 -0.543 7.596 0 3.459 2.577 3.459 2.577 6.511 5.425 3.597 2.282 6.559 2.494 10.784 2.51l3.353 0.054c3.686 -0.45 5.703 -1.416 8.65 -3.649 1.45 -3.088 1.45 -3.088 1.085 -6.511 -4.221 -5.408 -8.656 -6.882 -14.987 -8.681 -8.294 -2.392 -15.78 -5.075 -21.295 -12.003 -3.354 -6.305 -3.682 -11.971 -1.696 -18.922 2.922 -6.106 8.299 -10.265 14.377 -12.953 10.258 -1.54 19.77 -1.441 29.026 3.729" fill="#000000"/><path d="M902.251 294.67c3.798 0.474 3.798 0.474 5.642 1.785 1.896 2.613 1.784 4.279 1.729 7.484l-0.033 3.232c-0.026 1.111 -0.054 2.222 -0.082 3.367l-0.043 3.407A807.306 807.306 0 0 1 909.304 322.271l2.734 -0.152 3.573 -0.119 3.547 -0.152c3.166 0.423 3.166 0.423 5.226 2.398 1.682 3.327 1.106 5.356 0.111 8.876 -2.17 2.17 -2.17 2.17 -5.23 2.382l-3.586 -0.076 -3.602 -0.06L909.304 335.292q0.153 7.935 0.344 15.868 0.063 2.696 0.114 5.393c0.05 2.591 0.113 5.182 0.178 7.774l0.038 2.415c0.133 4.723 0.857 8.639 2.581 13.038l2.772 0.36 3.602 0.521 3.586 0.497C925.58 381.951 925.58 381.951 927.751 385.206c0.372 3.494 0.416 5.713 -1.221 8.854 -2.894 2.84 -4.89 2.576 -8.884 2.539 -6.862 -0.228 -10.439 -1.469 -15.277 -6.43 -6.865 -7.635 -7.346 -15.959 -7.278 -25.842l0.005 -2.527c0.005 -2.641 0.02 -5.284 0.033 -7.925q0.009 -2.7 0.015 -5.4 0.018 -6.592 0.053 -13.182l-3.667 0.076C887.602 335.292 887.602 335.292 885.501 334.072c-1.682 -2.968 -1.503 -5.194 -1.153 -8.545l2.17 -3.255c2.11 -0.318 2.11 -0.318 4.476 -0.203L895.198 322.271l-0.052 -2.023c-0.067 -3.033 -0.11 -6.066 -0.152 -9.1l-0.082 -3.184 -0.031 -3.073 -0.052 -2.823c0.716 -5 2.467 -6.781 7.423 -7.4" fill="#000000"/><path d="M661.904 322.271c2.17 2.17 2.17 2.17 2.51 5.358C664.074 330.952 664.074 330.952 662.989 332.786c-3.977 2.603 -9.052 1.531 -13.646 1.293 -5.345 -0.169 -8.93 0.23 -13.481 3.382 -4.943 5.722 -4.964 10.511 -4.926 17.713 -0.011 1.067 -0.025 2.134 -0.038 3.234a1082.918 1082.918 0 0 0 -0.054 10.182q-0.024 5.108 -0.078 10.216 -0.033 3.174 -0.029 6.348l-0.022 2.897 -0.004 2.548C630.436 392.802 630.436 392.802 628.266 396.057c-2.348 0.318 -2.348 0.318 -5.019 0.204l-2.688 -0.09L618.5 396.057c-2.268 -3.727 -2.439 -6.632 -2.434 -10.957l-0.011 -4.048 0.025 -4.361v-4.483q0.003 -4.692 0.026 -9.383c0.018 -4.009 0.023 -8.018 0.022 -12.026q0.001 -4.627 0.014 -9.253 0.005 -2.217 0.007 -4.435 0.005 -3.098 0.024 -6.194l0.012 -3.56C616.33 324.441 616.33 324.441 617.415 321.186c3.459 -1.73 7.107 -1.805 10.851 -1.085 2.17 2.713 2.17 2.713 3.255 5.425l1.747 -1.149 2.322 -1.495 2.29 -1.489c7.408 -4.123 17.001 -3.687 24.024 0.878" fill="#000000"/><path d="M256.081 383.036h7.596v1.085h-6.511v30.382c-4.525 -4.525 -4.66 -9.413 -4.679 -15.598 0.065 -6.167 0.482 -10.552 3.594 -15.869" fill="#616DAE"/></svg>